<svg xmlns="http://www.w3.org/2000/svg" xmlns:xlink="http://www.w3.org/1999/xlink" width="834.8261108398438" height="834.82568359375" viewBox="0 0 834.8261108398438 834.82568359375" fill="none">
<path d="M494.975 84.9392L565.686 155.65L494.975 226.361L424.264 155.65L494.975 84.9392Z"   fill="#29A750" >
</path>
<path d="M579.828 169.792L650.538 240.503L579.828 311.213L509.117 240.503L579.828 169.792Z"   fill="#29A750" >
</path>
<path d="M579.828 339.497L650.538 410.208L579.828 480.919L509.117 410.208L579.828 339.497Z"   fill="#29A750" >
</path>
<path d="M410.122 169.792L480.833 240.502L410.122 311.213L339.412 240.502L410.122 169.792Z"   fill="#29A750" >
</path>
<path d="M664.68 254.645L735.391 325.355L664.68 396.066L593.97 325.355L664.68 254.645Z"   fill="#29A750" >
</path>
<path d="M84.8532 495.061L155.564 565.771L226.275 495.061L155.564 424.35L84.8532 495.061Z"   fill="#29A750" >
</path>
<path d="M169.706 579.914L240.417 650.624L311.127 579.914L240.417 509.203L169.706 579.914Z"   fill="#29A750" >
</path>
<path d="M339.412 579.914L410.122 650.624L480.833 579.914L410.122 509.203L339.412 579.914Z"   fill="#29A750" >
</path>
<path d="M169.706 410.208L240.417 480.919L311.127 410.208L240.417 339.497L169.706 410.208Z"   fill="#29A750" >
</path>
<path d="M254.559 664.766L325.27 735.477L395.98 664.766L325.27 594.056L254.559 664.766Z"   fill="#29A750" >
</path>
<path d="M735.391 495.061L664.68 565.772L593.97 495.061L664.68 424.35L735.391 495.061Z"   fill="#29A750" >
</path>
<path d="M650.538 579.914L579.828 650.625L509.117 579.914L579.828 509.203L650.538 579.914Z"   fill="#29A750" >
</path>
<path d="M480.833 579.914L410.122 650.624L339.412 579.914L410.122 509.203L480.833 579.914Z"   fill="#29A750" >
</path>
<path d="M650.539 410.208L579.828 480.919L509.117 410.208L579.828 339.497L650.539 410.208Z"   fill="#29A750" >
</path>
<path d="M565.686 664.766L494.975 735.477L424.265 664.766L494.975 594.056L565.686 664.766Z"   fill="#29A750" >
</path>
<path d="M325.269 84.939L254.559 155.65L325.269 226.36L395.98 155.65L325.269 84.939Z"   fill="#29A750" >
</path>
<path d="M240.417 169.792L169.706 240.503L240.417 311.213L311.127 240.503L240.417 169.792Z"   fill="#29A750" >
</path>
<path d="M240.417 339.497L169.706 410.208L240.417 480.919L311.127 410.208L240.417 339.497Z"   fill="#29A750" >
</path>
<path d="M410.122 169.792L339.412 240.502L410.122 311.213L480.833 240.502L410.122 169.792Z"   fill="#29A750" >
</path>
<path d="M155.564 254.644L84.8531 325.355L155.564 396.066L226.274 325.355L155.564 254.644Z"   fill="#29A750" >
</path>
<path d="M509.557 99.3484L580.268 170.059L509.557 240.77L438.846 170.059L509.557 99.3484Z"   fill="#29A750" >
</path>
<path d="M594.41 184.201L665.12 254.912L594.41 325.623L523.699 254.912L594.41 184.201Z"   fill="#29A750" >
</path>
<path d="M594.41 353.907L665.121 424.617L594.41 495.328L523.699 424.617L594.41 353.907Z"   fill="#29A750" >
</path>
<path d="M424.704 184.201L495.415 254.912L424.704 325.622L353.993 254.912L424.704 184.201Z"   fill="#29A750" >
</path>
<path d="M679.263 269.054L749.973 339.765L679.263 410.475L608.552 339.765L679.263 269.054Z"   fill="#29A750" >
</path>
<path d="M99.4351 509.47L170.146 580.181L240.856 509.47L170.146 438.76L99.4351 509.47Z"   fill="#29A750" >
</path>
<path d="M184.288 594.323L254.999 665.034L325.709 594.323L254.999 523.612L184.288 594.323Z"   fill="#29A750" >
</path>
<path d="M353.993 594.323L424.704 665.034L495.415 594.323L424.704 523.612L353.993 594.323Z"   fill="#29A750" >
</path>
<path d="M184.288 424.617L254.999 495.328L325.709 424.617L254.999 353.907L184.288 424.617Z"   fill="#29A750" >
</path>
<path d="M269.141 679.176L339.851 749.887L410.562 679.176L339.851 608.465L269.141 679.176Z"   fill="#29A750" >
</path>
<path d="M749.973 509.47L679.263 580.181L608.552 509.47L679.263 438.76L749.973 509.47Z"   fill="#29A750" >
</path>
<path d="M665.121 594.323L594.41 665.034L523.699 594.323L594.41 523.612L665.121 594.323Z"   fill="#29A750" >
</path>
<path d="M495.415 594.323L424.704 665.034L353.994 594.323L424.704 523.612L495.415 594.323Z"   fill="#29A750" >
</path>
<path d="M665.121 424.617L594.41 495.328L523.699 424.617L594.41 353.907L665.121 424.617Z"   fill="#29A750" >
</path>
<path d="M580.268 679.176L509.557 749.887L438.846 679.176L509.557 608.465L580.268 679.176Z"   fill="#29A750" >
</path>
<path d="M339.852 99.3484L269.141 170.059L339.852 240.77L410.562 170.059L339.852 99.3484Z"   fill="#29A750" >
</path>
<path d="M254.999 184.201L184.288 254.912L254.999 325.623L325.709 254.912L254.999 184.201Z"   fill="#29A750" >
</path>
<path d="M254.999 353.907L184.288 424.617L254.999 495.328L325.709 424.617L254.999 353.907Z"   fill="#29A750" >
</path>
<path d="M424.704 184.201L353.993 254.912L424.704 325.622L495.415 254.912L424.704 184.201Z"   fill="#29A750" >
</path>
<path d="M170.146 269.054L99.4351 339.764L170.146 410.475L240.856 339.764L170.146 269.054Z"   fill="#29A750" >
</path>
</svg>
